<?xml version="1.0" encoding="utf-8"?>
<!-- Generator: Adobe Illustrator 28.2.0, SVG Export Plug-In . SVG Version: 6.00 Build 0)  -->
<svg version="1.1" id="Layer_1" xmlns="http://www.w3.org/2000/svg" xmlns:xlink="http://www.w3.org/1999/xlink" x="0px" y="0px"
	 viewBox="0 0 612 792" style="enable-background:new 0 0 612 792;" xml:space="preserve">
<style type="text/css">
	.st0{fill:#FFFFFF;}
	.st1{fill:#FFFFFF;stroke:#FFFFFF;stroke-width:0.25;stroke-miterlimit:10;}
</style>
<g>
	<g>
		<path class="st0" d="M313.6,594.33c-113.14,1.55-205.5-90.81-203.95-203.95c1.46-106.64,91.7-196.88,198.34-198.34
			c113.14-1.55,205.5,90.81,203.95,203.95C510.45,504.49,422.1,592.84,313.6,594.33z M313.46,202.03
			c-107.52-1.47-195.29,86.3-193.82,193.82c1.39,101.34,87.14,187.09,188.48,188.48c107.52,1.47,195.29-86.3,193.81-193.81
			C500.55,289.17,414.8,203.42,313.46,202.03z"/>
	</g>
	<g>
		<path class="st1" d="M293.25,298.22"/>
	</g>
	<g>
		<path class="st0" d="M327.12,529.51c-7.26,0-14.54-0.65-21.63-1.93c-57.39-10.39-99.04-60.32-99.04-118.73
			c0-11.93,1.74-23.72,5.17-35.04l2.25-7.43c0.56-1.84,3.1-2.01,3.89-0.25l2.88,6.38c8.14,18.02,25.42,30.49,45.16,31.7
			c31.85,1.97,58.19-24.47,56.05-56.36c-1.33-19.82-14.01-37.1-32.2-45.09l-6.62-2.9c-1.69-0.74-1.56-3.19,0.2-3.74l7.62-2.4
			c11.69-3.68,23.89-5.54,36.26-5.54c66.54,0,120.67,54.13,120.67,120.67C447.79,475.38,393.66,529.51,327.12,529.51z
			 M221.22,392.11c-1.16-1.37-3.41-0.71-3.66,1.07c-0.73,5.17-1.1,10.4-1.1,15.67c0,53.57,38.2,99.37,90.82,108.89l0,0
			c6.5,1.18,13.18,1.77,19.85,1.77c60.92,0,110.5-49.47,110.67-110.35c0.16-56.43-46.7-106.92-103.01-110.72
			c-8.37-0.57-16.7-0.2-24.85,1.07c-1.62,0.25-2.21,2.33-0.94,3.38c14.32,11.76,22.98,29.49,22.98,48.59
			c0,34.65-28.19,62.83-62.83,62.83C250.44,414.3,232.99,405.95,221.22,392.11z"/>
	</g>
	<g>
		<path class="st1" d="M269.29,293.18"/>
	</g>
	<g>
		<path class="st1" d="M216,328.5"/>
	</g>
	<g>
		<path class="st1" d="M211.46,351.01"/>
	</g>
	<g>
		<polygon class="st0" points="212.01,376.88 211.91,376.65 216.52,374.71 221.05,372.6 217.15,374.45 221.13,372.77 217.15,374.45 
					"/>
	</g>
	<g>
		<path class="st1" d="M292.94,298.22"/>
	</g>
</g>
</svg>
