<?xml version="1.0" encoding="utf-8"?>
<!-- Generator: Adobe Illustrator 28.2.0, SVG Export Plug-In . SVG Version: 6.00 Build 0)  -->
<svg version="1.1" id="Layer_2_00000141441035953406861160000004869286762147024017_"
	 xmlns="http://www.w3.org/2000/svg" xmlns:xlink="http://www.w3.org/1999/xlink" x="0px" y="0px" viewBox="0 0 128 128"
	 style="enable-background:new 0 0 128 128;" xml:space="preserve">
<style type="text/css">
	.st0{fill:#FFFFFF;stroke:#FFFFFF;stroke-width:2;stroke-miterlimit:10;}
</style>
<g>
	<path class="st0" d="M63.5,14.1C35.8,14.5,12.4,37.9,12,65.5c-0.4,29.3,23.5,53.3,52.9,52.9c28.1-0.4,51-23.3,51.4-51.4
		C116.8,37.7,92.8,13.7,63.5,14.1z M63.5,115.8C37.2,115.5,15,93.2,14.6,67C14.2,39.1,37,16.3,64.9,16.7
		c26.3,0.4,48.5,22.6,48.9,48.9C114.1,93.5,91.4,116.2,63.5,115.8z"/>
	<path class="st0" d="M68.4,39c-3.2,0-6.4,0.5-9.4,1.4l-2,0.6c-0.5,0.1-0.5,0.8-0.1,1l1.7,0.8c4.7,2.1,8,6.6,8.4,11.7
		c0.6,8.3-6.3,15.1-14.5,14.6c-5.1-0.3-9.6-3.5-11.7-8.2l0.1,0l-0.1,0c0,0,0,0,0-0.1l-0.7-1.7c-0.2-0.5-0.9-0.4-1,0.1l-0.6,1.9
		c-0.9,2.9-1.3,6-1.3,9.1c0,15.1,10.8,28.1,25.7,30.8c1.8,0.3,3.7,0.5,5.6,0.5c17.3,0,31.3-14,31.3-31.3C99.7,53.1,85.7,39,68.4,39z
		 M68.4,99c-1.7,0-3.5-0.2-5.1-0.5c-13.6-2.5-23.6-14.3-23.6-28.2c0-1.4,0.1-2.7,0.3-4.1c0.1-0.5,0.6-0.6,0.9-0.3
		c3.1,3.6,7.6,5.8,12.4,5.8c9,0,16.3-7.3,16.3-16.3c0-5-2.2-9.6-6-12.6C63.4,42.6,63.6,42,64,42c2.1-0.3,4.3-0.4,6.4-0.3
		c14.6,1,26.8,14.1,26.7,28.7C97.1,86.2,84.2,99,68.4,99z"/>
</g>
</svg>
