<?xml version="1.0" encoding="utf-8"?>
<!-- Generator: Adobe Illustrator 28.2.0, SVG Export Plug-In . SVG Version: 6.00 Build 0)  -->
<svg version="1.1" id="Layer_2_00000141441035953406861160000004869286762147024017_"
	 xmlns="http://www.w3.org/2000/svg" xmlns:xlink="http://www.w3.org/1999/xlink" x="0px" y="0px" viewBox="0 0 128 128"
	 style="enable-background:new 0 0 128 128;" xml:space="preserve">
<style type="text/css">
	.st0{fill:none;stroke:#FFFFFF;stroke-width:4;stroke-linecap:round;stroke-linejoin:round;}
</style>
<path class="st0" d="M75.5,54.4H61.5c-4.7,0-8.4,3.8-8.4,8.4c0,4.7,3.8,8.4,8.4,8.4h5.6c4.7,0,8.4,3.8,8.4,8.4s-3.8,8.4-8.4,8.4H53"
	/>
<path class="st0" d="M64.3,48.8v5.6"/>
<path class="st0" d="M64.3,88.2v5.6"/>
<path class="st0" d="M92.4,20.7v10.6c0,3.9,2.2,7.4,5.6,9.1c3.4,1.7,5.6,5.2,5.6,9.1v50c0,9.3-7.6,16.9-16.9,16.9h-45
	c-9.3,0-16.9-7.6-16.9-16.9v-50c0-3.9,2.2-7.4,5.6-9.1s5.6-5.2,5.6-9.1V20.7"/>
<path class="st0" d="M30.5,20.7H98H30.5z"/>
</svg>
